<?xml version="1.0" standalone="no"?>
<!DOCTYPE svg PUBLIC "-//W3C//DTD SVG 20010904//EN"
 "http://www.w3.org/TR/2001/REC-SVG-20010904/DTD/svg10.dtd">
<svg version="1.0" xmlns="http://www.w3.org/2000/svg"
 width="512.000000pt" height="512.000000pt" viewBox="0 0 512.000000 512.000000"
 preserveAspectRatio="xMidYMid meet">

<g transform="translate(0.000000,512.000000) scale(0.100000,-0.100000)"
fill="#000000" stroke="none">
<path d="M3820 5105 c-30 -7 -748 -214 -1595 -459 -1086 -315 -1561 -457
-1612 -482 -192 -93 -318 -319 -300 -533 3 -39 42 -190 94 -366 l88 -300 5
-1260 c6 -1379 1 -1281 68 -1410 75 -143 233 -258 389 -284 47 -8 262 -11 705
-9 l638 3 26 26 c38 39 39 99 1 136 l-27 28 -663 5 -662 5 -61 28 c-77 36
-145 104 -181 182 l-28 60 -3 723 -3 722 1956 0 1956 0 -3 -732 -3 -733 -25
-50 c-30 -60 -103 -136 -156 -163 -79 -40 -123 -42 -765 -42 -437 0 -627 -3
-642 -11 -60 -31 -76 -106 -33 -152 13 -14 35 -29 48 -32 12 -3 320 -4 683 -3
656 3 660 3 719 26 83 31 142 68 205 126 69 65 114 135 148 233 l28 78 0 1263
0 1264 -33 29 -32 29 -1717 0 c-944 0 -1714 2 -1712 5 3 2 743 218 1645 479
1788 518 1684 484 1684 559 0 53 -176 645 -215 724 -107 217 -381 345 -615
288z m230 -207 c96 -29 185 -112 219 -203 41 -108 153 -517 145 -524 -13 -12
-364 -113 -380 -109 -13 3 -725 681 -720 686 6 5 553 161 581 165 38 5 110 -2
155 -15z m-611 -560 c193 -186 351 -341 352 -345 0 -9 -490 -154 -508 -150
-16 3 -724 680 -718 686 8 8 500 150 512 148 6 -1 169 -154 362 -339z m-747
-223 c195 -187 349 -343 344 -346 -6 -4 -123 -39 -260 -78 l-249 -72 -46 44
c-25 24 -184 177 -353 338 -168 162 -307 299 -308 304 -2 11 475 155 502 152
9 -1 175 -155 370 -342z m-651 -317 l255 -246 -250 -72 c-138 -40 -256 -75
-261 -77 -10 -3 -717 667 -723 685 -1 5 113 42 255 84 l258 75 105 -102 c58
-56 220 -212 361 -347z m-856 -118 c222 -214 352 -346 344 -349 -8 -3 -203
-60 -434 -127 -289 -84 -422 -118 -426 -110 -4 6 -39 124 -79 261 -61 210 -73
261 -72 321 1 153 87 272 240 331 31 12 60 21 63 20 4 -1 167 -157 364 -347z
m383 -838 c-1 -5 -95 -169 -208 -365 l-205 -356 -227 -1 -228 0 0 365 0 365
436 0 c240 0 434 -4 432 -8z m782 1 c0 -3 -93 -168 -207 -365 l-207 -358 -274
0 -274 0 14 23 c8 12 104 176 212 365 l198 342 269 0 c148 0 269 -3 269 -7z
m776 -20 c-9 -16 -103 -179 -209 -363 l-195 -335 -271 -3 c-149 -1 -271 0
-271 3 0 3 93 168 208 365 l207 360 273 0 273 0 -15 -27z m792 18 c-1 -4 -95
-169 -208 -364 l-205 -357 -273 0 -273 0 12 23 c17 31 378 657 395 685 14 22
15 22 285 22 149 0 269 -4 267 -9z m692 -356 l0 -365 -434 0 -435 0 126 218
c69 119 163 283 210 365 l85 147 224 0 224 0 0 -365z"/>
<path d="M2343 1673 c-12 -2 -34 -18 -48 -34 l-25 -31 0 -540 0 -540 34 -34
c23 -23 43 -34 63 -34 25 0 395 207 869 485 119 70 144 122 87 185 -30 32
-897 537 -935 543 -13 3 -33 3 -45 0z"/>
<path d="M2615 188 c-99 -54 -50 -204 59 -184 48 9 78 46 80 96 1 35 -4 47
-32 71 -34 31 -72 37 -107 17z"/>
</g>
</svg>
